<svg width="94" height="22" viewBox="0 0 94 22" fill="none" xmlns="http://www.w3.org/2000/svg">
<path d="M53.5156 1.74054C53.6332 1.14711 53.2477 0.570611 52.6546 0.452893C52.0614 0.335176 51.4852 0.720817 51.3675 1.31425L50.8315 4.01784C50.7138 4.61127 51.0993 5.18777 51.6924 5.30549C52.2856 5.4232 52.8618 5.03756 52.9795 4.44413L53.5156 1.74054Z" fill="#A0ACB1"/>
<path d="M47.6316 1.42479C47.2954 0.921929 46.6154 0.786972 46.1127 1.12335C45.6101 1.45973 45.4752 2.14007 45.8114 2.64293L47.3432 4.93388C47.6795 5.43674 48.3595 5.5717 48.8621 5.23532C49.3648 4.89894 49.4997 4.2186 49.1634 3.71574L47.6316 1.42479Z" fill="#A0ACB1"/>
<path d="M43.7919 5.39202C43.1987 5.2743 42.6225 5.65995 42.5048 6.25338C42.3871 6.84681 42.7726 7.42331 43.3658 7.54103L46.0681 8.07733C46.6613 8.19505 47.2375 7.80941 47.3552 7.21598C47.4729 6.62254 47.0874 6.04605 46.4942 5.92833L43.7919 5.39202Z" fill="#A0ACB1"/>
<path d="M8.15911 20.6506L5.51005 16.3395H3.07291V20.6506H0V6.93994H5.51005C6.64032 6.93994 7.6293 7.11663 8.477 7.50533C9.3247 7.89403 9.92515 8.42409 10.3843 9.13082C10.8082 9.83756 11.0554 10.6503 11.0554 11.6044C11.0554 12.5585 10.8435 13.3712 10.4196 14.078C9.9958 14.7847 9.36002 15.3148 8.54764 15.7035L11.7265 20.6153H8.19443L8.15911 20.6506ZM3.07291 13.6186H5.40409C6.21647 13.6186 6.85224 13.4419 7.31141 13.1239C7.77058 12.7705 7.98251 12.2758 7.98251 11.6397C7.98251 11.0037 7.77058 10.509 7.31141 10.1556C6.85224 9.80222 6.21647 9.66087 5.40409 9.66087H3.07291V13.6186Z" fill="#A0ACB1"/>
<path d="M14.7287 20.2275C13.9517 19.7681 13.3512 19.1674 12.892 18.39C12.4329 17.6126 12.2209 16.7292 12.2209 15.7397C12.2209 14.7503 12.4329 13.8669 12.892 13.0895C13.3159 12.3121 13.9517 11.676 14.7287 11.252C15.5058 10.7926 16.3888 10.5806 17.3778 10.5806C18.3668 10.5806 19.2498 10.7926 20.0269 11.252C20.8039 11.676 21.4044 12.3121 21.8635 13.0895C22.2874 13.8669 22.5346 14.7503 22.5346 15.7397C22.5346 16.0578 22.5346 16.3758 22.464 16.6938H15.2585C15.3645 17.2592 15.6117 17.7186 16.0003 18.0366C16.3888 18.3547 16.848 18.496 17.4131 18.496C17.837 18.496 18.2255 18.4253 18.5434 18.284C18.8613 18.1426 19.1085 17.966 19.2145 17.7186H22.2167C22.0401 18.3547 21.7223 18.8847 21.2631 19.3794C20.8039 19.8741 20.2388 20.2275 19.5677 20.5102C18.8966 20.7929 18.1548 20.8989 17.3778 20.8989C16.3888 20.8989 15.5058 20.6869 14.7287 20.2275ZM19.5677 14.7503C19.4264 14.1496 19.1792 13.6902 18.8259 13.4075C18.4374 13.0895 17.9782 12.9481 17.3778 12.9481C16.7773 12.9481 16.3182 13.0895 15.965 13.4075C15.6117 13.7255 15.3645 14.1496 15.2232 14.7503H19.603H19.5677Z" fill="#A0ACB1"/>
<path d="M33.484 10.7925L29.7047 20.6514H26.5965L22.8171 10.7925H26.0667L28.2565 17.2238L30.4464 10.7925H33.484Z" fill="#A0ACB1"/>
<path d="M36.4502 20.3334C35.8498 19.98 35.4259 19.4853 35.108 18.8139C34.7901 18.1425 34.6135 17.3651 34.6135 16.4817V10.7925H37.6158V15.987C37.6158 16.7291 37.7571 17.3298 38.075 17.7185C38.3575 18.1072 38.8167 18.3192 39.3465 18.3192C39.8763 18.3192 40.4061 18.1072 40.724 17.6478C41.0419 17.1884 41.2185 16.623 41.2185 15.8456V10.7925H44.2208V20.6514H41.2185V19.662C40.6181 20.4748 39.6997 20.8988 38.4635 20.8988C37.6864 20.8988 37.0153 20.7221 36.4502 20.3687V20.3334Z" fill="#A0ACB1"/>
<path d="M49.5188 20.0505C48.3886 19.4145 47.5409 18.5664 46.9051 17.4709C46.2693 16.3755 45.9514 15.1387 45.9514 13.7959C45.9514 12.4531 46.2693 11.2163 46.9051 10.1209C47.5409 9.02546 48.4239 8.17738 49.5188 7.54131C50.6491 6.90525 51.8853 6.62256 53.2628 6.62256C54.4991 6.62256 55.594 6.83458 56.5477 7.29396C57.5013 7.75334 58.3137 8.35406 58.9142 9.13147C59.5146 9.90888 59.9031 10.7923 60.1151 11.7817H57.0422C56.8656 11.1103 56.4417 10.5449 55.8059 10.0856C55.1348 9.62618 54.3225 9.41416 53.3688 9.41416C52.5564 9.41416 51.8147 9.59085 51.1436 9.97955C50.4725 10.3683 49.978 10.863 49.5895 11.5344C49.2009 12.2058 49.0243 12.9478 49.0243 13.7959C49.0243 14.644 49.2009 15.3861 49.5895 16.0575C49.978 16.7289 50.4725 17.2589 51.1436 17.6476C51.8147 18.0363 52.5564 18.213 53.3688 18.213C54.0046 18.213 54.5697 18.0717 55.1348 17.8596C55.7 17.6123 56.1591 17.2943 56.5123 16.9056C56.8656 16.5169 57.1128 16.1281 57.1834 15.7041H60.2917C60.1504 16.6229 59.7619 17.5063 59.1261 18.319C58.4903 19.1318 57.6779 19.8032 56.6536 20.2979C55.6293 20.7926 54.5344 21.04 53.2981 21.04C51.9206 21.04 50.6491 20.7219 49.5541 20.1212L49.5188 20.0505Z" fill="#A0ACB1"/>
<path d="M64.8844 20.6518H61.8821V6.51709H64.8844V20.6165V20.6518Z" fill="#A0ACB1"/>
<path d="M69.9355 6.55178C70.2888 6.90515 70.4654 7.32919 70.4654 7.85924C70.4654 8.38929 70.2888 8.81333 69.9355 9.1667C69.5823 9.52007 69.1585 9.69675 68.6287 9.69675C68.0989 9.69675 67.675 9.52007 67.3218 9.1667C66.9686 8.81333 66.792 8.38929 66.792 7.85924C66.792 7.32919 66.9686 6.90515 67.3218 6.55178C67.675 6.19841 68.0989 6.02173 68.6287 6.02173C69.1585 6.02173 69.5823 6.19841 69.9355 6.55178ZM70.1475 20.6865H67.1452V10.7922H70.1475V20.6865Z" fill="#A0ACB1"/>
<path d="M80.2845 19.8375C79.4015 20.5089 78.3419 20.8623 77.1057 20.8623C76.1167 20.8623 75.1983 20.6503 74.4213 20.1909C73.6442 19.7315 73.0084 19.1308 72.5493 18.3534C72.0901 17.576 71.8782 16.6925 71.8782 15.7031C71.8782 14.7137 72.0901 13.8303 72.5493 13.0529C73.0084 12.2754 73.6089 11.6394 74.4213 11.2153C75.1983 10.756 76.1167 10.5439 77.1057 10.5439C77.9534 10.5439 78.6951 10.7206 79.4015 11.0387C80.1079 11.3567 80.6731 11.8161 81.0969 12.3815C81.5561 12.9468 81.8387 13.5829 81.9446 14.2896H78.907C78.7657 13.9363 78.5538 13.6536 78.2359 13.4416C77.918 13.2295 77.5295 13.1235 77.0703 13.1235C76.3639 13.1235 75.8341 13.3709 75.4103 13.8303C74.9864 14.2896 74.7745 14.9257 74.7745 15.6678C74.7745 16.4098 74.9864 17.0459 75.4103 17.5053C75.8341 17.9647 76.3992 18.212 77.0703 18.212C77.5295 18.212 77.918 18.106 78.2359 17.894C78.5538 17.682 78.8011 17.3993 78.9423 17.0459H81.9799C81.7327 18.1767 81.1676 19.0954 80.2845 19.8022V19.8375Z" fill="#A0ACB1"/>
<path d="M87.8074 17.0472L86.6065 18.39V20.6516H83.6042V6.51685H86.6065V14.7857L90.068 10.7573H93.3881L89.6088 14.9623L93.6 20.6162H90.1739L87.7721 17.0119L87.8074 17.0472Z" fill="#A0ACB1"/>
</svg>
