<svg width="24" height="24" viewBox="0 0 24 24" fill="none" xmlns="http://www.w3.org/2000/svg">
<path d="M15.5844 8.26765L15.5623 8.29474L11.7154 13.7438L9.39707 11.1652C9.23959 11.0021 9.0313 10.9132 8.81608 10.9175C8.60087 10.9217 8.39552 11.0186 8.24332 11.1878C8.09111 11.357 8.00393 11.5853 8.00013 11.8246C7.99633 12.0639 8.07622 12.2954 8.22296 12.4705L11.1538 15.7301C11.2328 15.8177 11.3268 15.8867 11.4303 15.9331C11.5337 15.9794 11.6446 16.0021 11.7561 15.9998C11.8676 15.9975 11.9776 15.9703 12.0795 15.9197C12.1813 15.8691 12.273 15.7963 12.349 15.7055L16.7707 9.56065C16.9213 9.38496 17.0036 9.15046 16.9999 8.90783C16.9962 8.6652 16.9067 8.43395 16.7508 8.26407C16.595 8.09419 16.3852 7.99933 16.167 8C15.9487 8.00067 15.7394 8.09682 15.5844 8.26765Z" fill="#F52E36"/>
</svg>
